<svg width="1600" height="400" viewBox="0 0 1600 400" xmlns="http://www.w3.org/2000/svg" preserveAspectRatio="xMidYMid slice">
  <defs>
    <linearGradient id="g1" x1="0" x2="0" y1="0" y2="1">
      <stop offset="0%" stop-color="#0e1a2f"/>
      <stop offset="100%" stop-color="#081020"/>
    </linearGradient>
    <linearGradient id="g2" x1="0" x2="1" y1="0" y2="0">
      <stop offset="0%" stop-color="#3b82f6" stop-opacity="0.4"/>
      <stop offset="100%" stop-color="#10b981" stop-opacity="0.4"/>
    </linearGradient>
    <filter id="blur" x="-10%" y="-10%" width="120%" height="120%">
      <feGaussianBlur stdDeviation="30" />
    </filter>
  </defs>
  <rect width="100%" height="100%" fill="url(#g1)"/>
  <g filter="url(#blur)">
    <circle cx="200" cy="60" r="120" fill="#1b2a46"/>
    <circle cx="1450" cy="320" r="160" fill="#132036"/>
  </g>
  <g>
    <polyline fill="none" stroke="url(#g2)" stroke-width="3"
      points="0,300 80,290 160,310 240,250 320,260 400,220 480,240 560,180 640,210 720,170 800,200 880,160 960,140 1040,200 1120,180 1200,150 1280,170 1360,130 1440,160 1520,120 1600,140"/>
    <g fill="#3b82f6">
      <rect x="260" y="200" width="24" height="80" rx="4"/>
      <rect x="340" y="180" width="24" height="100" rx="4"/>
      <rect x="420" y="150" width="24" height="130" rx="4"/>
      <rect x="500" y="170" width="24" height="110" rx="4"/>
      <rect x="580" y="120" width="24" height="160" rx="4"/>
      <rect x="660" y="140" width="24" height="140" rx="4"/>
      <rect x="740" y="110" width="24" height="170" rx="4"/>
      <rect x="820" y="130" width="24" height="150" rx="4"/>
    </g>
  </g>
</svg>
